<?xml version="1.0" encoding="utf-8" standalone="no"?>
<!DOCTYPE svg PUBLIC "-//W3C//DTD SVG 1.1//EN"
  "http://www.w3.org/Graphics/SVG/1.1/DTD/svg11.dtd">
<svg xmlns:xlink="http://www.w3.org/1999/xlink" width="460.8pt" height="345.6pt" viewBox="0 0 460.8 345.6" xmlns="http://www.w3.org/2000/svg" version="1.1">
 <metadata>
  <rdf:RDF xmlns:dc="http://purl.org/dc/elements/1.1/" xmlns:cc="http://creativecommons.org/ns#" xmlns:rdf="http://www.w3.org/1999/02/22-rdf-syntax-ns#">
   <cc:Work>
    <dc:type rdf:resource="http://purl.org/dc/dcmitype/StillImage"/>
    <dc:date>2024-01-25T13:41:10.622570</dc:date>
    <dc:format>image/svg+xml</dc:format>
    <dc:creator>
     <cc:Agent>
      <dc:title>Matplotlib v3.8.0, https://matplotlib.org/</dc:title>
     </cc:Agent>
    </dc:creator>
   </cc:Work>
  </rdf:RDF>
 </metadata>
 <defs>
  <style type="text/css">*{stroke-linejoin: round; stroke-linecap: butt}</style>
 </defs>
 <g id="figure_1">
  <g id="patch_1">
   <path d="M 0 345.6 
L 460.8 345.6 
L 460.8 0 
L 0 0 
z
" style="fill: #ffffff"/>
  </g>
  <g id="axes_1">
   <g id="LineCollection_1">
    <path d="M 88.589752 165.988713 
L 319.834873 234.904458 
" clip-path="url(#pb043d8a899)" style="fill: none; stroke: #008000"/>
    <path d="M 88.589752 165.988713 
L 230.60555 64.564364 
" clip-path="url(#pb043d8a899)" style="fill: none; stroke: #008000"/>
    <path d="M 157.409381 82.355736 
L 383.730248 74.523485 
" clip-path="url(#pb043d8a899)" style="fill: none; stroke: #008000"/>
    <path d="M 306.893246 151.405637 
L 263.203522 259.086857 
" clip-path="url(#pb043d8a899)" style="fill: none; stroke: #008000"/>
    <path d="M 200.411278 284.491636 
L 157.149747 170.082306 
" clip-path="url(#pb043d8a899)" style="fill: none; stroke: #008000"/>
    <path d="M 129.637253 269.283101 
L 263.203522 259.086857 
" clip-path="url(#pb043d8a899)" style="fill: none; stroke: #008000"/>
    <path d="M 281.027324 88.800117 
L 383.730248 74.523485 
" clip-path="url(#pb043d8a899)" style="fill: none; stroke: #008000"/>
   </g>
   <g id="PathCollection_1">
    <defs>
     <path id="C0_0_381bd715fa" d="M 0 13.228757 
C 3.508307 13.228757 6.873396 11.834891 9.354143 9.354143 
C 11.834891 6.873396 13.228757 3.508307 13.228757 -0 
C 13.228757 -3.508307 11.834891 -6.873396 9.354143 -9.354143 
C 6.873396 -11.834891 3.508307 -13.228757 0 -13.228757 
C -3.508307 -13.228757 -6.873396 -11.834891 -9.354143 -9.354143 
C -11.834891 -6.873396 -13.228757 -3.508307 -13.228757 0 
C -13.228757 3.508307 -11.834891 6.873396 -9.354143 9.354143 
C -6.873396 11.834891 -3.508307 13.228757 0 13.228757 
z
"/>
    </defs>
    <g clip-path="url(#pb043d8a899)">
     <use xlink:href="#C0_0_381bd715fa" x="129.637253" y="269.283101" style="fill: #87ceeb; stroke: #87ceeb"/>
    </g>
    <g clip-path="url(#pb043d8a899)">
     <use xlink:href="#C0_0_381bd715fa" x="88.589752" y="165.988713" style="fill: #ffa500; stroke: #ffa500"/>
    </g>
    <g clip-path="url(#pb043d8a899)">
     <use xlink:href="#C0_0_381bd715fa" x="281.027324" y="88.800117" style="fill: #87ceeb; stroke: #87ceeb"/>
    </g>
    <g clip-path="url(#pb043d8a899)">
     <use xlink:href="#C0_0_381bd715fa" x="157.149747" y="170.082306" style="fill: #ffa500; stroke: #ffa500"/>
    </g>
    <g clip-path="url(#pb043d8a899)">
     <use xlink:href="#C0_0_381bd715fa" x="383.730248" y="74.523485" style="fill: #ffa500; stroke: #ffa500"/>
    </g>
    <g clip-path="url(#pb043d8a899)">
     <use xlink:href="#C0_0_381bd715fa" x="319.834873" y="234.904458" style="fill: #87ceeb; stroke: #87ceeb"/>
    </g>
    <g clip-path="url(#pb043d8a899)">
     <use xlink:href="#C0_0_381bd715fa" x="306.893246" y="151.405637" style="fill: #87ceeb; stroke: #87ceeb"/>
    </g>
    <g clip-path="url(#pb043d8a899)">
     <use xlink:href="#C0_0_381bd715fa" x="157.409381" y="82.355736" style="fill: #87ceeb; stroke: #87ceeb"/>
    </g>
    <g clip-path="url(#pb043d8a899)">
     <use xlink:href="#C0_0_381bd715fa" x="263.203522" y="259.086857" style="fill: #ffa500; stroke: #ffa500"/>
    </g>
    <g clip-path="url(#pb043d8a899)">
     <use xlink:href="#C0_0_381bd715fa" x="230.60555" y="64.564364" style="fill: #87ceeb; stroke: #87ceeb"/>
    </g>
    <g clip-path="url(#pb043d8a899)">
     <use xlink:href="#C0_0_381bd715fa" x="200.411278" y="284.491636" style="fill: #87ceeb; stroke: #87ceeb"/>
    </g>
   </g>
   <g id="text_1">
    <g clip-path="url(#pb043d8a899)">
     <!-- C4 -->
     <g transform="translate(122.297331 272.318414) scale(0.11 -0.11)">
      <defs>
       <path id="DejaVuSans-43" d="M 4122 4306 
L 4122 3641 
Q 3803 3938 3442 4084 
Q 3081 4231 2675 4231 
Q 1875 4231 1450 3742 
Q 1025 3253 1025 2328 
Q 1025 1406 1450 917 
Q 1875 428 2675 428 
Q 3081 428 3442 575 
Q 3803 722 4122 1019 
L 4122 359 
Q 3791 134 3420 21 
Q 3050 -91 2638 -91 
Q 1578 -91 968 557 
Q 359 1206 359 2328 
Q 359 3453 968 4101 
Q 1578 4750 2638 4750 
Q 3056 4750 3426 4639 
Q 3797 4528 4122 4306 
z
" transform="scale(0.015625)"/>
       <path id="DejaVuSans-34" d="M 2419 4116 
L 825 1625 
L 2419 1625 
L 2419 4116 
z
M 2253 4666 
L 3047 4666 
L 3047 1625 
L 3713 1625 
L 3713 1100 
L 3047 1100 
L 3047 0 
L 2419 0 
L 2419 1100 
L 313 1100 
L 313 1709 
L 2253 4666 
z
" transform="scale(0.015625)"/>
      </defs>
      <use xlink:href="#DejaVuSans-43"/>
      <use xlink:href="#DejaVuSans-34" x="69.824219"/>
     </g>
    </g>
   </g>
   <g id="text_2">
    <g clip-path="url(#pb043d8a899)">
     <!-- S1 -->
     <g transform="translate(81.598736 169.024025) scale(0.11 -0.11)">
      <defs>
       <path id="DejaVuSans-53" d="M 3425 4513 
L 3425 3897 
Q 3066 4069 2747 4153 
Q 2428 4238 2131 4238 
Q 1616 4238 1336 4038 
Q 1056 3838 1056 3469 
Q 1056 3159 1242 3001 
Q 1428 2844 1947 2747 
L 2328 2669 
Q 3034 2534 3370 2195 
Q 3706 1856 3706 1288 
Q 3706 609 3251 259 
Q 2797 -91 1919 -91 
Q 1588 -91 1214 -16 
Q 841 59 441 206 
L 441 856 
Q 825 641 1194 531 
Q 1563 422 1919 422 
Q 2459 422 2753 634 
Q 3047 847 3047 1241 
Q 3047 1584 2836 1778 
Q 2625 1972 2144 2069 
L 1759 2144 
Q 1053 2284 737 2584 
Q 422 2884 422 3419 
Q 422 4038 858 4394 
Q 1294 4750 2059 4750 
Q 2388 4750 2728 4690 
Q 3069 4631 3425 4513 
z
" transform="scale(0.015625)"/>
       <path id="DejaVuSans-31" d="M 794 531 
L 1825 531 
L 1825 4091 
L 703 3866 
L 703 4441 
L 1819 4666 
L 2450 4666 
L 2450 531 
L 3481 531 
L 3481 0 
L 794 0 
L 794 531 
z
" transform="scale(0.015625)"/>
      </defs>
      <use xlink:href="#DejaVuSans-53"/>
      <use xlink:href="#DejaVuSans-31" x="63.476562"/>
     </g>
    </g>
   </g>
   <g id="text_3">
    <g clip-path="url(#pb043d8a899)">
     <!-- C5 -->
     <g transform="translate(273.687402 91.835429) scale(0.11 -0.11)">
      <defs>
       <path id="DejaVuSans-35" d="M 691 4666 
L 3169 4666 
L 3169 4134 
L 1269 4134 
L 1269 2991 
Q 1406 3038 1543 3061 
Q 1681 3084 1819 3084 
Q 2600 3084 3056 2656 
Q 3513 2228 3513 1497 
Q 3513 744 3044 326 
Q 2575 -91 1722 -91 
Q 1428 -91 1123 -41 
Q 819 9 494 109 
L 494 744 
Q 775 591 1075 516 
Q 1375 441 1709 441 
Q 2250 441 2565 725 
Q 2881 1009 2881 1497 
Q 2881 1984 2565 2268 
Q 2250 2553 1709 2553 
Q 1456 2553 1204 2497 
Q 953 2441 691 2322 
L 691 4666 
z
" transform="scale(0.015625)"/>
      </defs>
      <use xlink:href="#DejaVuSans-43"/>
      <use xlink:href="#DejaVuSans-35" x="69.824219"/>
     </g>
    </g>
   </g>
   <g id="text_4">
    <g clip-path="url(#pb043d8a899)">
     <!-- S5 -->
     <g transform="translate(150.158731 173.117619) scale(0.11 -0.11)">
      <use xlink:href="#DejaVuSans-53"/>
      <use xlink:href="#DejaVuSans-35" x="63.476562"/>
     </g>
    </g>
   </g>
   <g id="text_5">
    <g clip-path="url(#pb043d8a899)">
     <!-- S4 -->
     <g transform="translate(376.739232 77.558797) scale(0.11 -0.11)">
      <use xlink:href="#DejaVuSans-53"/>
      <use xlink:href="#DejaVuSans-34" x="63.476562"/>
     </g>
    </g>
   </g>
   <g id="text_6">
    <g clip-path="url(#pb043d8a899)">
     <!-- C6 -->
     <g transform="translate(312.494952 237.93977) scale(0.11 -0.11)">
      <defs>
       <path id="DejaVuSans-36" d="M 2113 2584 
Q 1688 2584 1439 2293 
Q 1191 2003 1191 1497 
Q 1191 994 1439 701 
Q 1688 409 2113 409 
Q 2538 409 2786 701 
Q 3034 994 3034 1497 
Q 3034 2003 2786 2293 
Q 2538 2584 2113 2584 
z
M 3366 4563 
L 3366 3988 
Q 3128 4100 2886 4159 
Q 2644 4219 2406 4219 
Q 1781 4219 1451 3797 
Q 1122 3375 1075 2522 
Q 1259 2794 1537 2939 
Q 1816 3084 2150 3084 
Q 2853 3084 3261 2657 
Q 3669 2231 3669 1497 
Q 3669 778 3244 343 
Q 2819 -91 2113 -91 
Q 1303 -91 875 529 
Q 447 1150 447 2328 
Q 447 3434 972 4092 
Q 1497 4750 2381 4750 
Q 2619 4750 2861 4703 
Q 3103 4656 3366 4563 
z
" transform="scale(0.015625)"/>
      </defs>
      <use xlink:href="#DejaVuSans-43"/>
      <use xlink:href="#DejaVuSans-36" x="69.824219"/>
     </g>
    </g>
   </g>
   <g id="text_7">
    <g clip-path="url(#pb043d8a899)">
     <!-- C2 -->
     <g transform="translate(299.553324 154.440949) scale(0.11 -0.11)">
      <defs>
       <path id="DejaVuSans-32" d="M 1228 531 
L 3431 531 
L 3431 0 
L 469 0 
L 469 531 
Q 828 903 1448 1529 
Q 2069 2156 2228 2338 
Q 2531 2678 2651 2914 
Q 2772 3150 2772 3378 
Q 2772 3750 2511 3984 
Q 2250 4219 1831 4219 
Q 1534 4219 1204 4116 
Q 875 4013 500 3803 
L 500 4441 
Q 881 4594 1212 4672 
Q 1544 4750 1819 4750 
Q 2544 4750 2975 4387 
Q 3406 4025 3406 3419 
Q 3406 3131 3298 2873 
Q 3191 2616 2906 2266 
Q 2828 2175 2409 1742 
Q 1991 1309 1228 531 
z
" transform="scale(0.015625)"/>
      </defs>
      <use xlink:href="#DejaVuSans-43"/>
      <use xlink:href="#DejaVuSans-32" x="69.824219"/>
     </g>
    </g>
   </g>
   <g id="text_8">
    <g clip-path="url(#pb043d8a899)">
     <!-- C1 -->
     <g transform="translate(150.069459 85.391049) scale(0.11 -0.11)">
      <use xlink:href="#DejaVuSans-43"/>
      <use xlink:href="#DejaVuSans-31" x="69.824219"/>
     </g>
    </g>
   </g>
   <g id="text_9">
    <g clip-path="url(#pb043d8a899)">
     <!-- S2 -->
     <g transform="translate(256.212506 262.122169) scale(0.11 -0.11)">
      <use xlink:href="#DejaVuSans-53"/>
      <use xlink:href="#DejaVuSans-32" x="63.476562"/>
     </g>
    </g>
   </g>
   <g id="text_10">
    <g clip-path="url(#pb043d8a899)">
     <!-- C7 -->
     <g transform="translate(223.265628 67.599676) scale(0.11 -0.11)">
      <defs>
       <path id="DejaVuSans-37" d="M 525 4666 
L 3525 4666 
L 3525 4397 
L 1831 0 
L 1172 0 
L 2766 4134 
L 525 4134 
L 525 4666 
z
" transform="scale(0.015625)"/>
      </defs>
      <use xlink:href="#DejaVuSans-43"/>
      <use xlink:href="#DejaVuSans-37" x="69.824219"/>
     </g>
    </g>
   </g>
   <g id="text_11">
    <g clip-path="url(#pb043d8a899)">
     <!-- C3 -->
     <g transform="translate(193.071356 287.526949) scale(0.11 -0.11)">
      <defs>
       <path id="DejaVuSans-33" d="M 2597 2516 
Q 3050 2419 3304 2112 
Q 3559 1806 3559 1356 
Q 3559 666 3084 287 
Q 2609 -91 1734 -91 
Q 1441 -91 1130 -33 
Q 819 25 488 141 
L 488 750 
Q 750 597 1062 519 
Q 1375 441 1716 441 
Q 2309 441 2620 675 
Q 2931 909 2931 1356 
Q 2931 1769 2642 2001 
Q 2353 2234 1838 2234 
L 1294 2234 
L 1294 2753 
L 1863 2753 
Q 2328 2753 2575 2939 
Q 2822 3125 2822 3475 
Q 2822 3834 2567 4026 
Q 2313 4219 1838 4219 
Q 1578 4219 1281 4162 
Q 984 4106 628 3988 
L 628 4550 
Q 988 4650 1302 4700 
Q 1616 4750 1894 4750 
Q 2613 4750 3031 4423 
Q 3450 4097 3450 3541 
Q 3450 3153 3228 2886 
Q 3006 2619 2597 2516 
z
" transform="scale(0.015625)"/>
      </defs>
      <use xlink:href="#DejaVuSans-43"/>
      <use xlink:href="#DejaVuSans-33" x="69.824219"/>
     </g>
    </g>
   </g>
  </g>
 </g>
 <defs>
  <clipPath id="pb043d8a899">
   <rect x="57.6" y="41.472" width="357.12" height="266.112"/>
  </clipPath>
 </defs>
</svg>
